<?xml version="1.0" encoding="UTF-8" ?>
<svg version="1.1" width="32" height="32" xmlns="http://www.w3.org/2000/svg" shape-rendering="crispEdges">
<rect x="10" y="3" width="1" height="1" fill="#061B26" />
<rect x="11" y="3" width="1" height="1" fill="#082031" />
<rect x="12" y="3" width="1" height="1" fill="#062334" />
<rect x="13" y="3" width="1" height="1" fill="#082333" />
<rect x="17" y="3" width="1" height="1" fill="#061B26" />
<rect x="18" y="3" width="1" height="1" fill="#062133" />
<rect x="19" y="3" width="1" height="1" fill="#092132" />
<rect x="20" y="3" width="1" height="1" fill="#072435" />
<rect x="21" y="3" width="1" height="1" fill="#012031" />
<rect x="22" y="3" width="1" height="1" fill="#C4BDBB" />
<rect x="9" y="4" width="1" height="1" fill="#061B26" />
<rect x="10" y="4" width="1" height="1" fill="#061B26" />
<rect x="11" y="4" width="1" height="1" fill="#FBFDFD" />
<rect x="12" y="4" width="1" height="1" fill="#FBFFFE" />
<rect x="13" y="4" width="1" height="1" fill="#EBF7F3" />
<rect x="14" y="4" width="1" height="1" fill="#01192A" />
<rect x="17" y="4" width="1" height="1" fill="#072234" />
<rect x="18" y="4" width="1" height="1" fill="#F5FAF8" />
<rect x="19" y="4" width="1" height="1" fill="#FCFFFE" />
<rect x="20" y="4" width="1" height="1" fill="#FDFFFD" />
<rect x="21" y="4" width="1" height="1" fill="#F4FFFF" />
<rect x="22" y="4" width="1" height="1" fill="#061B26" />
<rect x="8" y="5" width="1" height="1" fill="#122127" />
<rect x="9" y="5" width="1" height="1" fill="#061B26" />
<rect x="10" y="5" width="1" height="1" fill="#EDF7F3" />
<rect x="11" y="5" width="1" height="1" fill="#FFF8F7" />
<rect x="12" y="5" width="1" height="1" fill="#FFFBFA" />
<rect x="13" y="5" width="1" height="1" fill="#FFFFFF" />
<rect x="14" y="5" width="1" height="1" fill="#E9F1E9" />
<rect x="15" y="5" width="1" height="1" fill="#061B26" />
<rect x="16" y="5" width="1" height="1" fill="#031C2A" />
<rect x="17" y="5" width="1" height="1" fill="#EBF2F0" />
<rect x="18" y="5" width="1" height="1" fill="#FFFFFF" />
<rect x="19" y="5" width="1" height="1" fill="#FFF6F5" />
<rect x="20" y="5" width="1" height="1" fill="#FFF7F9" />
<rect x="21" y="5" width="1" height="1" fill="#FFFFFE" />
<rect x="22" y="5" width="1" height="1" fill="#142029" />
<rect x="23" y="5" width="1" height="1" fill="#021622" />
<rect x="8" y="6" width="1" height="1" fill="#071C27" />
<rect x="9" y="6" width="1" height="1" fill="#EBF3EC" />
<rect x="10" y="6" width="1" height="1" fill="#F6FBF7" />
<rect x="11" y="6" width="1" height="1" fill="#FFDAD3" />
<rect x="12" y="6" width="1" height="1" fill="#FFD0CC" />
<rect x="13" y="6" width="1" height="1" fill="#BB8283" />
<rect x="14" y="6" width="1" height="1" fill="#F1F9F2" />
<rect x="15" y="6" width="1" height="1" fill="#EAF2ED" />
<rect x="16" y="6" width="1" height="1" fill="#011A24" />
<rect x="17" y="6" width="1" height="1" fill="#EEF9F0" />
<rect x="18" y="6" width="1" height="1" fill="#D88E97" />
<rect x="19" y="6" width="1" height="1" fill="#D88E97" />
<rect x="20" y="6" width="1" height="1" fill="#D88E97" />
<rect x="21" y="6" width="1" height="1" fill="#AA7F7E" />
<rect x="22" y="6" width="1" height="1" fill="#EDF5EE" />
<rect x="23" y="6" width="1" height="1" fill="#031B2E" />
<rect x="8" y="7" width="1" height="1" fill="#061F2E" />
<rect x="9" y="7" width="1" height="1" fill="#EFF7EF" />
<rect x="10" y="7" width="1" height="1" fill="#F8FAF7" />
<rect x="11" y="7" width="1" height="1" fill="#F3A19D" />
<rect x="12" y="7" width="1" height="1" fill="#FFFFFF" />
<rect x="13" y="7" width="1" height="1" fill="#EFA79D" />
<rect x="14" y="7" width="1" height="1" fill="#F4F9F3" />
<rect x="15" y="7" width="1" height="1" fill="#EFF9F6" />
<rect x="16" y="7" width="1" height="1" fill="#001C27" />
<rect x="17" y="7" width="1" height="1" fill="#EFFAF0" />
<rect x="18" y="7" width="1" height="1" fill="#F29E9D" />
<rect x="19" y="7" width="1" height="1" fill="#F39D9B" />
<rect x="20" y="7" width="1" height="1" fill="#F09F9B" />
<rect x="21" y="7" width="1" height="1" fill="#CA9C95" />
<rect x="22" y="7" width="1" height="1" fill="#ECF6EE" />
<rect x="23" y="7" width="1" height="1" fill="#022038" />
<rect x="4" y="8" width="1" height="1" fill="#042338" />
<rect x="5" y="8" width="1" height="1" fill="#042231" />
<rect x="6" y="8" width="1" height="1" fill="#041F2F" />
<rect x="7" y="8" width="1" height="1" fill="#031E2D" />
<rect x="8" y="8" width="1" height="1" fill="#061F2E" />
<rect x="9" y="8" width="1" height="1" fill="#EEF9EE" />
<rect x="10" y="8" width="1" height="1" fill="#F8FDFC" />
<rect x="11" y="8" width="1" height="1" fill="#F4A19D" />
<rect x="12" y="8" width="1" height="1" fill="#F4A39C" />
<rect x="13" y="8" width="1" height="1" fill="#F2A49C" />
<rect x="14" y="8" width="1" height="1" fill="#F2F8F2" />
<rect x="15" y="8" width="1" height="1" fill="#EDF7F1" />
<rect x="16" y="8" width="1" height="1" fill="#031A27" />
<rect x="17" y="8" width="1" height="1" fill="#F1F9F0" />
<rect x="18" y="8" width="1" height="1" fill="#F69F9F" />
<rect x="19" y="8" width="1" height="1" fill="#F39E99" />
<rect x="20" y="8" width="1" height="1" fill="#F29F97" />
<rect x="21" y="8" width="1" height="1" fill="#DAA39A" />
<rect x="22" y="8" width="1" height="1" fill="#EBF5ED" />
<rect x="23" y="8" width="1" height="1" fill="#032032" />
<rect x="24" y="8" width="1" height="1" fill="#031C2A" />
<rect x="25" y="8" width="1" height="1" fill="#021F31" />
<rect x="26" y="8" width="1" height="1" fill="#021F31" />
<rect x="27" y="8" width="1" height="1" fill="#05233B" />
<rect x="3" y="9" width="1" height="1" fill="#081825" />
<rect x="4" y="9" width="1" height="1" fill="#FCFFFE" />
<rect x="5" y="9" width="1" height="1" fill="#FEFDFF" />
<rect x="6" y="9" width="1" height="1" fill="#FCFFFE" />
<rect x="7" y="9" width="1" height="1" fill="#FCFCF9" />
<rect x="8" y="9" width="1" height="1" fill="#001E2A" />
<rect x="9" y="9" width="1" height="1" fill="#9AADBB" />
<rect x="10" y="9" width="1" height="1" fill="#BDCADC" />
<rect x="11" y="9" width="1" height="1" fill="#C46175" />
<rect x="12" y="9" width="1" height="1" fill="#C65F74" />
<rect x="13" y="9" width="1" height="1" fill="#C35F78" />
<rect x="14" y="9" width="1" height="1" fill="#A5B2C2" />
<rect x="15" y="9" width="1" height="1" fill="#98ACBC" />
<rect x="16" y="9" width="1" height="1" fill="#02202F" />
<rect x="17" y="9" width="1" height="1" fill="#A4B5C8" />
<rect x="18" y="9" width="1" height="1" fill="#C86A7A" />
<rect x="19" y="9" width="1" height="1" fill="#C45F71" />
<rect x="20" y="9" width="1" height="1" fill="#C76073" />
<rect x="21" y="9" width="1" height="1" fill="#C66C78" />
<rect x="22" y="9" width="1" height="1" fill="#9AAEC0" />
<rect x="23" y="9" width="1" height="1" fill="#032233" />
<rect x="24" y="9" width="1" height="1" fill="#F4F8F9" />
<rect x="25" y="9" width="1" height="1" fill="#FCFEFF" />
<rect x="26" y="9" width="1" height="1" fill="#FEFEFE" />
<rect x="27" y="9" width="1" height="1" fill="#B6C0C6" />
<rect x="28" y="9" width="1" height="1" fill="#051A27" />
<rect x="2" y="10" width="1" height="1" fill="#052030" />
<rect x="3" y="10" width="1" height="1" fill="#FCFFFE" />
<rect x="4" y="10" width="1" height="1" fill="#F9FAF5" />
<rect x="5" y="10" width="1" height="1" fill="#FDFFFF" />
<rect x="6" y="10" width="1" height="1" fill="#FDFFFF" />
<rect x="7" y="10" width="1" height="1" fill="#FDFFFF" />
<rect x="8" y="10" width="1" height="1" fill="#F2F8F4" />
<rect x="9" y="10" width="1" height="1" fill="#01162F" />
<rect x="10" y="10" width="1" height="1" fill="#9DB3C9" />
<rect x="11" y="10" width="1" height="1" fill="#A0B4C6" />
<rect x="12" y="10" width="1" height="1" fill="#9EB1C6" />
<rect x="13" y="10" width="1" height="1" fill="#9AADC4" />
<rect x="14" y="10" width="1" height="1" fill="#A0B3CA" />
<rect x="15" y="10" width="1" height="1" fill="#02182C" />
<rect x="16" y="10" width="1" height="1" fill="#9AA8C1" />
<rect x="17" y="10" width="1" height="1" fill="#A5B0C1" />
<rect x="18" y="10" width="1" height="1" fill="#A0B4C6" />
<rect x="19" y="10" width="1" height="1" fill="#9DB3C7" />
<rect x="20" y="10" width="1" height="1" fill="#9BB1C5" />
<rect x="21" y="10" width="1" height="1" fill="#9EB4C8" />
<rect x="22" y="10" width="1" height="1" fill="#001935" />
<rect x="23" y="10" width="1" height="1" fill="#F2F4F3" />
<rect x="24" y="10" width="1" height="1" fill="#FDFFFF" />
<rect x="25" y="10" width="1" height="1" fill="#FDFFFF" />
<rect x="26" y="10" width="1" height="1" fill="#FDFFFF" />
<rect x="27" y="10" width="1" height="1" fill="#FFFFFD" />
<rect x="28" y="10" width="1" height="1" fill="#5A728A" />
<rect x="2" y="11" width="1" height="1" fill="#082333" />
<rect x="3" y="11" width="1" height="1" fill="#E9F5F1" />
<rect x="4" y="11" width="1" height="1" fill="#FDFFFF" />
<rect x="5" y="11" width="1" height="1" fill="#F6A6A4" />
<rect x="6" y="11" width="1" height="1" fill="#DF9490" />
<rect x="7" y="11" width="1" height="1" fill="#FDFFFF" />
<rect x="8" y="11" width="1" height="1" fill="#F1F7F0" />
<rect x="9" y="11" width="1" height="1" fill="#E9F4EE" />
<rect x="10" y="11" width="1" height="1" fill="#021B29" />
<rect x="11" y="11" width="1" height="1" fill="#9FB2C7" />
<rect x="12" y="11" width="1" height="1" fill="#A0B3C8" />
<rect x="13" y="11" width="1" height="1" fill="#99B1C7" />
<rect x="14" y="11" width="1" height="1" fill="#072138" />
<rect x="15" y="11" width="1" height="1" fill="#B7C4C6" />
<rect x="16" y="11" width="1" height="1" fill="#D0DFE3" />
<rect x="17" y="11" width="1" height="1" fill="#051A30" />
<rect x="18" y="11" width="1" height="1" fill="#9AB2C8" />
<rect x="19" y="11" width="1" height="1" fill="#9FB5C9" />
<rect x="20" y="11" width="1" height="1" fill="#9CB2C6" />
<rect x="21" y="11" width="1" height="1" fill="#284054" />
<rect x="22" y="11" width="1" height="1" fill="#E7F0F0" />
<rect x="23" y="11" width="1" height="1" fill="#F4F9F3" />
<rect x="24" y="11" width="1" height="1" fill="#FDFFFF" />
<rect x="25" y="11" width="1" height="1" fill="#E89792" />
<rect x="26" y="11" width="1" height="1" fill="#E29891" />
<rect x="27" y="11" width="1" height="1" fill="#FFFFFF" />
<rect x="28" y="11" width="1" height="1" fill="#EAF8F5" />
<rect x="29" y="11" width="1" height="1" fill="#061F2E" />
<rect x="2" y="12" width="1" height="1" fill="#052030" />
<rect x="3" y="12" width="1" height="1" fill="#EEF7F7" />
<rect x="4" y="12" width="1" height="1" fill="#FDFFFF" />
<rect x="5" y="12" width="1" height="1" fill="#F39E99" />
<rect x="6" y="12" width="1" height="1" fill="#FEFEFE" />
<rect x="7" y="12" width="1" height="1" fill="#EEA29A" />
<rect x="8" y="12" width="1" height="1" fill="#F2FAF3" />
<rect x="9" y="12" width="1" height="1" fill="#EFFAF2" />
<rect x="10" y="12" width="1" height="1" fill="#061C2B" />
<rect x="11" y="12" width="1" height="1" fill="#071C29" />
<rect x="12" y="12" width="1" height="1" fill="#091F31" />
<rect x="13" y="12" width="1" height="1" fill="#092839" />
<rect x="14" y="12" width="1" height="1" fill="#CFDBDB" />
<rect x="15" y="12" width="1" height="1" fill="#CBDCDF" />
<rect x="16" y="12" width="1" height="1" fill="#CADFDF" />
<rect x="17" y="12" width="1" height="1" fill="#CEDCD9" />
<rect x="18" y="12" width="1" height="1" fill="#09202F" />
<rect x="19" y="12" width="1" height="1" fill="#082031" />
<rect x="20" y="12" width="1" height="1" fill="#071D2F" />
<rect x="21" y="12" width="1" height="1" fill="#05202E" />
<rect x="22" y="12" width="1" height="1" fill="#ECF5F2" />
<rect x="23" y="12" width="1" height="1" fill="#F4FCF5" />
<rect x="24" y="12" width="1" height="1" fill="#F29999" />
<rect x="25" y="12" width="1" height="1" fill="#FFFFFF" />
<rect x="26" y="12" width="1" height="1" fill="#FFDAD1" />
<rect x="27" y="12" width="1" height="1" fill="#F1A4A0" />
<rect x="28" y="12" width="1" height="1" fill="#F0FBFC" />
<rect x="29" y="12" width="1" height="1" fill="#081F2C" />
<rect x="2" y="13" width="1" height="1" fill="#001A2A" />
<rect x="3" y="13" width="1" height="1" fill="#EDF6F5" />
<rect x="4" y="13" width="1" height="1" fill="#FDFFFF" />
<rect x="5" y="13" width="1" height="1" fill="#F5A29E" />
<rect x="6" y="13" width="1" height="1" fill="#F39F9C" />
<rect x="7" y="13" width="1" height="1" fill="#F4A19B" />
<rect x="8" y="13" width="1" height="1" fill="#F3FBF4" />
<rect x="9" y="13" width="1" height="1" fill="#F2FAF1" />
<rect x="10" y="13" width="1" height="1" fill="#011827" />
<rect x="11" y="13" width="1" height="1" fill="#96A7BA" />
<rect x="12" y="13" width="1" height="1" fill="#98ABC0" />
<rect x="13" y="13" width="1" height="1" fill="#CCDCDD" />
<rect x="14" y="13" width="1" height="1" fill="#D8E5EA" />
<rect x="15" y="13" width="1" height="1" fill="#A14662" />
<rect x="16" y="13" width="1" height="1" fill="#AB4D68" />
<rect x="17" y="13" width="1" height="1" fill="#CBD6D7" />
<rect x="18" y="13" width="1" height="1" fill="#C8DADB" />
<rect x="19" y="13" width="1" height="1" fill="#8E9EB8" />
<rect x="20" y="13" width="1" height="1" fill="#93A4BE" />
<rect x="21" y="13" width="1" height="1" fill="#355469" />
<rect x="22" y="13" width="1" height="1" fill="#ECF5F4" />
<rect x="23" y="13" width="1" height="1" fill="#F3FDF5" />
<rect x="24" y="13" width="1" height="1" fill="#F59C9D" />
<rect x="25" y="13" width="1" height="1" fill="#EE9D98" />
<rect x="26" y="13" width="1" height="1" fill="#F1A39B" />
<rect x="27" y="13" width="1" height="1" fill="#F3A79E" />
<rect x="28" y="13" width="1" height="1" fill="#F2FEFA" />
<rect x="29" y="13" width="1" height="1" fill="#0A1E2C" />
<rect x="2" y="14" width="1" height="1" fill="#001122" />
<rect x="3" y="14" width="1" height="1" fill="#A4ADBC" />
<rect x="4" y="14" width="1" height="1" fill="#A2A9B9" />
<rect x="5" y="14" width="1" height="1" fill="#C96176" />
<rect x="6" y="14" width="1" height="1" fill="#C65C72" />
<rect x="7" y="14" width="1" height="1" fill="#C76276" />
<rect x="8" y="14" width="1" height="1" fill="#BAC1CA" />
<rect x="9" y="14" width="1" height="1" fill="#A7B9CC" />
<rect x="10" y="14" width="1" height="1" fill="#0A1E2C" />
<rect x="11" y="14" width="1" height="1" fill="#CDDBD8" />
<rect x="12" y="14" width="1" height="1" fill="#CBDBDA" />
<rect x="13" y="14" width="1" height="1" fill="#A75C7A" />
<rect x="14" y="14" width="1" height="1" fill="#A65173" />
<rect x="15" y="14" width="1" height="1" fill="#FEFEFE" />
<rect x="16" y="14" width="1" height="1" fill="#FDFFFF" />
<rect x="17" y="14" width="1" height="1" fill="#A3556B" />
<rect x="18" y="14" width="1" height="1" fill="#9B5773" />
<rect x="19" y="14" width="1" height="1" fill="#CDDBD8" />
<rect x="20" y="14" width="1" height="1" fill="#C9D9D8" />
<rect x="21" y="14" width="1" height="1" fill="#B3CBD5" />
<rect x="22" y="14" width="1" height="1" fill="#9AACBF" />
<rect x="23" y="14" width="1" height="1" fill="#BECFD7" />
<rect x="24" y="14" width="1" height="1" fill="#CE6478" />
<rect x="25" y="14" width="1" height="1" fill="#C45E73" />
<rect x="26" y="14" width="1" height="1" fill="#CE677C" />
<rect x="27" y="14" width="1" height="1" fill="#B489A3" />
<rect x="28" y="14" width="1" height="1" fill="#8E9FB4" />
<rect x="29" y="14" width="1" height="1" fill="#092230" />
<rect x="3" y="15" width="1" height="1" fill="#A8B2BC" />
<rect x="4" y="15" width="1" height="1" fill="#9FB0C4" />
<rect x="5" y="15" width="1" height="1" fill="#A3B4C7" />
<rect x="6" y="15" width="1" height="1" fill="#A0B4C6" />
<rect x="7" y="15" width="1" height="1" fill="#9CB1C8" />
<rect x="8" y="15" width="1" height="1" fill="#99ADBF" />
<rect x="9" y="15" width="1" height="1" fill="#072136" />
<rect x="10" y="15" width="1" height="1" fill="#A3B2C4" />
<rect x="11" y="15" width="1" height="1" fill="#C8DBD9" />
<rect x="12" y="15" width="1" height="1" fill="#8F3364" />
<rect x="13" y="15" width="1" height="1" fill="#FFECE5" />
<rect x="14" y="15" width="1" height="1" fill="#FCFFFE" />
<rect x="15" y="15" width="1" height="1" fill="#F4A8A2" />
<rect x="16" y="15" width="1" height="1" fill="#F4AAA1" />
<rect x="17" y="15" width="1" height="1" fill="#FEFDFF" />
<rect x="18" y="15" width="1" height="1" fill="#E8ADAD" />
<rect x="19" y="15" width="1" height="1" fill="#873E67" />
<rect x="20" y="15" width="1" height="1" fill="#CCDCDB" />
<rect x="21" y="15" width="1" height="1" fill="#CBDADE" />
<rect x="22" y="15" width="1" height="1" fill="#0A233F" />
<rect x="23" y="15" width="1" height="1" fill="#A3B8D1" />
<rect x="24" y="15" width="1" height="1" fill="#A1B6CA" />
<rect x="25" y="15" width="1" height="1" fill="#9EB4C8" />
<rect x="26" y="15" width="1" height="1" fill="#9CB0C5" />
<rect x="27" y="15" width="1" height="1" fill="#97A8BC" />
<rect x="28" y="15" width="1" height="1" fill="#6B8097" />
<rect x="3" y="16" width="1" height="1" fill="#021528" />
<rect x="4" y="16" width="1" height="1" fill="#9AADC4" />
<rect x="5" y="16" width="1" height="1" fill="#9BB0C7" />
<rect x="6" y="16" width="1" height="1" fill="#9FB2C5" />
<rect x="7" y="16" width="1" height="1" fill="#9AAFC5" />
<rect x="8" y="16" width="1" height="1" fill="#061F30" />
<rect x="9" y="16" width="1" height="1" fill="#98A3B4" />
<rect x="10" y="16" width="1" height="1" fill="#CCDCDB" />
<rect x="11" y="16" width="1" height="1" fill="#9A88A1" />
<rect x="12" y="16" width="1" height="1" fill="#FCFEFF" />
<rect x="13" y="16" width="1" height="1" fill="#F8BCB5" />
<rect x="14" y="16" width="1" height="1" fill="#F6ACA5" />
<rect x="15" y="16" width="1" height="1" fill="#F4AAA3" />
<rect x="16" y="16" width="1" height="1" fill="#F5A9A3" />
<rect x="17" y="16" width="1" height="1" fill="#F3A6A0" />
<rect x="18" y="16" width="1" height="1" fill="#F3ADA9" />
<rect x="19" y="16" width="1" height="1" fill="#FDF0ED" />
<rect x="20" y="16" width="1" height="1" fill="#8B3F60" />
<rect x="21" y="16" width="1" height="1" fill="#CCDCDD" />
<rect x="22" y="16" width="1" height="1" fill="#8099B5" />
<rect x="23" y="16" width="1" height="1" fill="#021E37" />
<rect x="24" y="16" width="1" height="1" fill="#A1B2CA" />
<rect x="25" y="16" width="1" height="1" fill="#A1B5C7" />
<rect x="26" y="16" width="1" height="1" fill="#98AEC2" />
<rect x="27" y="16" width="1" height="1" fill="#8DA7BE" />
<rect x="28" y="16" width="1" height="1" fill="#091A24" />
<rect x="4" y="17" width="1" height="1" fill="#071E2B" />
<rect x="5" y="17" width="1" height="1" fill="#061F30" />
<rect x="6" y="17" width="1" height="1" fill="#052030" />
<rect x="7" y="17" width="1" height="1" fill="#092230" />
<rect x="8" y="17" width="1" height="1" fill="#8FA6C0" />
<rect x="9" y="17" width="1" height="1" fill="#CFDDDD" />
<rect x="10" y="17" width="1" height="1" fill="#D8E2E8" />
<rect x="11" y="17" width="1" height="1" fill="#FFF4FF" />
<rect x="12" y="17" width="1" height="1" fill="#EBA3A0" />
<rect x="13" y="17" width="1" height="1" fill="#F6ACA3" />
<rect x="14" y="17" width="1" height="1" fill="#F6AAA4" />
<rect x="15" y="17" width="1" height="1" fill="#F5A9A3" />
<rect x="16" y="17" width="1" height="1" fill="#F5A9A3" />
<rect x="17" y="17" width="1" height="1" fill="#F4A8A2" />
<rect x="18" y="17" width="1" height="1" fill="#F4A8A0" />
<rect x="19" y="17" width="1" height="1" fill="#EEA29A" />
<rect x="20" y="17" width="1" height="1" fill="#FFCFC2" />
<rect x="21" y="17" width="1" height="1" fill="#844C64" />
<rect x="22" y="17" width="1" height="1" fill="#CCD9D9" />
<rect x="23" y="17" width="1" height="1" fill="#8CACC8" />
<rect x="24" y="17" width="1" height="1" fill="#092230" />
<rect x="25" y="17" width="1" height="1" fill="#08212F" />
<rect x="26" y="17" width="1" height="1" fill="#081F2E" />
<rect x="27" y="17" width="1" height="1" fill="#0A1E2C" />
<rect x="5" y="18" width="1" height="1" fill="#082031" />
<rect x="6" y="18" width="1" height="1" fill="#062133" />
<rect x="7" y="18" width="1" height="1" fill="#9CA7B7" />
<rect x="8" y="18" width="1" height="1" fill="#CCD9D9" />
<rect x="9" y="18" width="1" height="1" fill="#CADADB" />
<rect x="10" y="18" width="1" height="1" fill="#884265" />
<rect x="11" y="18" width="1" height="1" fill="#F19695" />
<rect x="12" y="18" width="1" height="1" fill="#F6ACA5" />
<rect x="13" y="18" width="1" height="1" fill="#F6AAA4" />
<rect x="14" y="18" width="1" height="1" fill="#F7A8A3" />
<rect x="15" y="18" width="1" height="1" fill="#F7A8A3" />
<rect x="16" y="18" width="1" height="1" fill="#F7A8A3" />
<rect x="17" y="18" width="1" height="1" fill="#F4A8A2" />
<rect x="18" y="18" width="1" height="1" fill="#F4A8A0" />
<rect x="19" y="18" width="1" height="1" fill="#F4A8A0" />
<rect x="20" y="18" width="1" height="1" fill="#F2A5A1" />
<rect x="21" y="18" width="1" height="1" fill="#F2A3AB" />
<rect x="22" y="18" width="1" height="1" fill="#D8E2E8" />
<rect x="23" y="18" width="1" height="1" fill="#C9D7D7" />
<rect x="24" y="18" width="1" height="1" fill="#96A3B1" />
<rect x="25" y="18" width="1" height="1" fill="#071D2D" />
<rect x="26" y="18" width="1" height="1" fill="#072234" />
<rect x="5" y="19" width="1" height="1" fill="#072232" />
<rect x="6" y="19" width="1" height="1" fill="#062334" />
<rect x="7" y="19" width="1" height="1" fill="#CAD5D4" />
<rect x="8" y="19" width="1" height="1" fill="#C9D7D7" />
<rect x="9" y="19" width="1" height="1" fill="#CBDBDC" />
<rect x="10" y="19" width="1" height="1" fill="#7C3757" />
<rect x="11" y="19" width="1" height="1" fill="#FDA4A5" />
<rect x="12" y="19" width="1" height="1" fill="#F9ACA6" />
<rect x="13" y="19" width="1" height="1" fill="#F9AAA5" />
<rect x="14" y="19" width="1" height="1" fill="#F8A9A4" />
<rect x="15" y="19" width="1" height="1" fill="#F8A9A4" />
<rect x="16" y="19" width="1" height="1" fill="#F8A9A4" />
<rect x="17" y="19" width="1" height="1" fill="#F8A9A4" />
<rect x="18" y="19" width="1" height="1" fill="#F8A9A4" />
<rect x="19" y="19" width="1" height="1" fill="#F6AAA4" />
<rect x="20" y="19" width="1" height="1" fill="#F8A4A0" />
<rect x="21" y="19" width="1" height="1" fill="#BE5E6C" />
<rect x="22" y="19" width="1" height="1" fill="#C8D3D6" />
<rect x="23" y="19" width="1" height="1" fill="#C8D6D6" />
<rect x="24" y="19" width="1" height="1" fill="#C8D8D7" />
<rect x="25" y="19" width="1" height="1" fill="#061F2E" />
<rect x="26" y="19" width="1" height="1" fill="#062334" />
<rect x="5" y="20" width="1" height="1" fill="#092132" />
<rect x="6" y="20" width="1" height="1" fill="#062334" />
<rect x="7" y="20" width="1" height="1" fill="#C8D4D2" />
<rect x="8" y="20" width="1" height="1" fill="#C8D6D6" />
<rect x="9" y="20" width="1" height="1" fill="#CDD8D9" />
<rect x="10" y="20" width="1" height="1" fill="#A8B9D3" />
<rect x="11" y="20" width="1" height="1" fill="#AD5E74" />
<rect x="12" y="20" width="1" height="1" fill="#D46F81" />
<rect x="13" y="20" width="1" height="1" fill="#D56E81" />
<rect x="14" y="20" width="1" height="1" fill="#D27788" />
<rect x="15" y="20" width="1" height="1" fill="#883258" />
<rect x="16" y="20" width="1" height="1" fill="#8A375A" />
<rect x="17" y="20" width="1" height="1" fill="#D46982" />
<rect x="18" y="20" width="1" height="1" fill="#D56F7D" />
<rect x="19" y="20" width="1" height="1" fill="#D87181" />
<rect x="20" y="20" width="1" height="1" fill="#DA6F7E" />
<rect x="21" y="20" width="1" height="1" fill="#67293E" />
<rect x="22" y="20" width="1" height="1" fill="#C7D4D6" />
<rect x="23" y="20" width="1" height="1" fill="#C9D7D7" />
<rect x="24" y="20" width="1" height="1" fill="#C8D8D7" />
<rect x="25" y="20" width="1" height="1" fill="#061F2E" />
<rect x="26" y="20" width="1" height="1" fill="#082031" />
<rect x="5" y="21" width="1" height="1" fill="#092132" />
<rect x="6" y="21" width="1" height="1" fill="#042133" />
<rect x="7" y="21" width="1" height="1" fill="#C1C8CA" />
<rect x="8" y="21" width="1" height="1" fill="#CBD6D7" />
<rect x="9" y="21" width="1" height="1" fill="#CCD9D9" />
<rect x="10" y="21" width="1" height="1" fill="#CFDCDF" />
<rect x="11" y="21" width="1" height="1" fill="#613C59" />
<rect x="12" y="21" width="1" height="1" fill="#853353" />
<rect x="13" y="21" width="1" height="1" fill="#873253" />
<rect x="14" y="21" width="1" height="1" fill="#723154" />
<rect x="15" y="21" width="1" height="1" fill="#A5BCCB" />
<rect x="16" y="21" width="1" height="1" fill="#B0C6D5" />
<rect x="17" y="21" width="1" height="1" fill="#803253" />
<rect x="18" y="21" width="1" height="1" fill="#823151" />
<rect x="19" y="21" width="1" height="1" fill="#883352" />
<rect x="20" y="21" width="1" height="1" fill="#8D3754" />
<rect x="21" y="21" width="1" height="1" fill="#99A6BA" />
<rect x="22" y="21" width="1" height="1" fill="#C9D7D7" />
<rect x="23" y="21" width="1" height="1" fill="#C9D7D7" />
<rect x="24" y="21" width="1" height="1" fill="#C8D8D7" />
<rect x="25" y="21" width="1" height="1" fill="#09202F" />
<rect x="26" y="21" width="1" height="1" fill="#062332" />
<rect x="5" y="22" width="1" height="1" fill="#112B3D" />
<rect x="6" y="22" width="1" height="1" fill="#072232" />
<rect x="7" y="22" width="1" height="1" fill="#8695A7" />
<rect x="8" y="22" width="1" height="1" fill="#CCD9D9" />
<rect x="9" y="22" width="1" height="1" fill="#CAD8D8" />
<rect x="10" y="22" width="1" height="1" fill="#C9D9D8" />
<rect x="11" y="22" width="1" height="1" fill="#BBCAD0" />
<rect x="12" y="22" width="1" height="1" fill="#849DB7" />
<rect x="13" y="22" width="1" height="1" fill="#819CB8" />
<rect x="14" y="22" width="1" height="1" fill="#AABAC9" />
<rect x="15" y="22" width="1" height="1" fill="#CCDAD7" />
<rect x="16" y="22" width="1" height="1" fill="#C9D9D8" />
<rect x="17" y="22" width="1" height="1" fill="#9CB1C8" />
<rect x="18" y="22" width="1" height="1" fill="#819BB4" />
<rect x="19" y="22" width="1" height="1" fill="#869BB2" />
<rect x="20" y="22" width="1" height="1" fill="#899CB3" />
<rect x="21" y="22" width="1" height="1" fill="#CAD8D8" />
<rect x="22" y="22" width="1" height="1" fill="#C9D7D7" />
<rect x="23" y="22" width="1" height="1" fill="#C9D9D8" />
<rect x="24" y="22" width="1" height="1" fill="#8796A8" />
<rect x="25" y="22" width="1" height="1" fill="#0B1F31" />
<rect x="26" y="22" width="1" height="1" fill="#09253C" />
<rect x="6" y="23" width="1" height="1" fill="#0A2237" />
<rect x="7" y="23" width="1" height="1" fill="#173956" />
<rect x="8" y="23" width="1" height="1" fill="#8A96AD" />
<rect x="9" y="23" width="1" height="1" fill="#CCD9D9" />
<rect x="10" y="23" width="1" height="1" fill="#CAD8D8" />
<rect x="11" y="23" width="1" height="1" fill="#C9D7D7" />
<rect x="12" y="23" width="1" height="1" fill="#C9D7D7" />
<rect x="13" y="23" width="1" height="1" fill="#C8D6D6" />
<rect x="14" y="23" width="1" height="1" fill="#C8D6D6" />
<rect x="15" y="23" width="1" height="1" fill="#CCD9D9" />
<rect x="16" y="23" width="1" height="1" fill="#C9D8DA" />
<rect x="17" y="23" width="1" height="1" fill="#C9D8DA" />
<rect x="18" y="23" width="1" height="1" fill="#C9D9D8" />
<rect x="19" y="23" width="1" height="1" fill="#C9D7D7" />
<rect x="20" y="23" width="1" height="1" fill="#C9D9D6" />
<rect x="21" y="23" width="1" height="1" fill="#C9D7D7" />
<rect x="22" y="23" width="1" height="1" fill="#CAD8D8" />
<rect x="23" y="23" width="1" height="1" fill="#8999B6" />
<rect x="24" y="23" width="1" height="1" fill="#42556C" />
<rect x="25" y="23" width="1" height="1" fill="#092230" />
<rect x="7" y="24" width="1" height="1" fill="#072330" />
<rect x="8" y="24" width="1" height="1" fill="#8896B1" />
<rect x="9" y="24" width="1" height="1" fill="#8B9BBA" />
<rect x="10" y="24" width="1" height="1" fill="#CCD9D9" />
<rect x="11" y="24" width="1" height="1" fill="#C9D7D7" />
<rect x="12" y="24" width="1" height="1" fill="#C9D7D7" />
<rect x="13" y="24" width="1" height="1" fill="#C9D7D7" />
<rect x="14" y="24" width="1" height="1" fill="#C9D7D7" />
<rect x="15" y="24" width="1" height="1" fill="#CAD8D8" />
<rect x="16" y="24" width="1" height="1" fill="#CAD8DA" />
<rect x="17" y="24" width="1" height="1" fill="#CAD8D8" />
<rect x="18" y="24" width="1" height="1" fill="#C9D7D7" />
<rect x="19" y="24" width="1" height="1" fill="#C9D7D7" />
<rect x="20" y="24" width="1" height="1" fill="#CAD8D8" />
<rect x="21" y="24" width="1" height="1" fill="#C9D9D8" />
<rect x="22" y="24" width="1" height="1" fill="#909AB0" />
<rect x="23" y="24" width="1" height="1" fill="#899CB1" />
<rect x="24" y="24" width="1" height="1" fill="#0C232F" />
<rect x="7" y="25" width="1" height="1" fill="#072435" />
<rect x="8" y="25" width="1" height="1" fill="#081F2E" />
<rect x="9" y="25" width="1" height="1" fill="#8597B5" />
<rect x="10" y="25" width="1" height="1" fill="#8490B3" />
<rect x="11" y="25" width="1" height="1" fill="#CDDADA" />
<rect x="12" y="25" width="1" height="1" fill="#CAD8D8" />
<rect x="13" y="25" width="1" height="1" fill="#CAD8D8" />
<rect x="14" y="25" width="1" height="1" fill="#CAD8D8" />
<rect x="15" y="25" width="1" height="1" fill="#CAD8DA" />
<rect x="16" y="25" width="1" height="1" fill="#CAD8DA" />
<rect x="17" y="25" width="1" height="1" fill="#CAD8D8" />
<rect x="18" y="25" width="1" height="1" fill="#CAD8D8" />
<rect x="19" y="25" width="1" height="1" fill="#CAD8D8" />
<rect x="20" y="25" width="1" height="1" fill="#CAD8D8" />
<rect x="21" y="25" width="1" height="1" fill="#CCDDE5" />
<rect x="22" y="25" width="1" height="1" fill="#8998AE" />
<rect x="23" y="25" width="1" height="1" fill="#091F35" />
<rect x="24" y="25" width="1" height="1" fill="#091F31" />
<rect x="8" y="26" width="1" height="1" fill="#061F30" />
<rect x="9" y="26" width="1" height="1" fill="#09202F" />
<rect x="10" y="26" width="1" height="1" fill="#859AB0" />
<rect x="11" y="26" width="1" height="1" fill="#859DB5" />
<rect x="12" y="26" width="1" height="1" fill="#CDE0E5" />
<rect x="13" y="26" width="1" height="1" fill="#CADADB" />
<rect x="14" y="26" width="1" height="1" fill="#CADADB" />
<rect x="15" y="26" width="1" height="1" fill="#CADAD9" />
<rect x="16" y="26" width="1" height="1" fill="#C8DADD" />
<rect x="17" y="26" width="1" height="1" fill="#CADAD9" />
<rect x="18" y="26" width="1" height="1" fill="#CADADB" />
<rect x="19" y="26" width="1" height="1" fill="#CBDBDC" />
<rect x="20" y="26" width="1" height="1" fill="#879EB8" />
<rect x="21" y="26" width="1" height="1" fill="#8A9DB2" />
<rect x="22" y="26" width="1" height="1" fill="#051A2E" />
<rect x="23" y="26" width="1" height="1" fill="#081F2E" />
<rect x="9" y="27" width="1" height="1" fill="#031D2F" />
<rect x="10" y="27" width="1" height="1" fill="#0B1D2E" />
<rect x="11" y="27" width="1" height="1" fill="#879DBA" />
<rect x="12" y="27" width="1" height="1" fill="#8AA1BB" />
<rect x="13" y="27" width="1" height="1" fill="#8C9FB8" />
<rect x="14" y="27" width="1" height="1" fill="#8B9CB2" />
<rect x="15" y="27" width="1" height="1" fill="#8D9DB3" />
<rect x="16" y="27" width="1" height="1" fill="#8D9DB3" />
<rect x="17" y="27" width="1" height="1" fill="#8E9EB6" />
<rect x="18" y="27" width="1" height="1" fill="#8D9DB3" />
<rect x="19" y="27" width="1" height="1" fill="#8E9FB4" />
<rect x="20" y="27" width="1" height="1" fill="#8EA3BA" />
<rect x="21" y="27" width="1" height="1" fill="#859FB6" />
<rect x="22" y="27" width="1" height="1" fill="#061F32" />
<rect x="10" y="28" width="1" height="1" fill="#051F34" />
<rect x="11" y="28" width="1" height="1" fill="#082431" />
<rect x="12" y="28" width="1" height="1" fill="#133245" />
<rect x="13" y="28" width="1" height="1" fill="#5D7390" />
<rect x="14" y="28" width="1" height="1" fill="#8095AE" />
<rect x="15" y="28" width="1" height="1" fill="#889DB6" />
<rect x="16" y="28" width="1" height="1" fill="#899EB7" />
<rect x="17" y="28" width="1" height="1" fill="#889DB6" />
<rect x="18" y="28" width="1" height="1" fill="#7A8FA8" />
<rect x="19" y="28" width="1" height="1" fill="#687C97" />
<rect x="20" y="28" width="1" height="1" fill="#0F2A3C" />
<rect x="21" y="28" width="1" height="1" fill="#082031" />
<rect x="11" y="29" width="1" height="1" fill="#09182E" />
<rect x="12" y="29" width="1" height="1" fill="#0B1932" />
<rect x="13" y="29" width="1" height="1" fill="#07182B" />
<rect x="14" y="29" width="1" height="1" fill="#04182A" />
<rect x="15" y="29" width="1" height="1" fill="#04182A" />
<rect x="16" y="29" width="1" height="1" fill="#05162C" />
<rect x="17" y="29" width="1" height="1" fill="#051426" />
<rect x="18" y="29" width="1" height="1" fill="#061527" />
<rect x="19" y="29" width="1" height="1" fill="#001323" />
<rect x="20" y="29" width="1" height="1" fill="#041629" />
<rect x="21" y="29" width="1" height="1" fill="#2A3543" />
</svg>